<svg width="54" height="54" viewBox="0 0 54 54" fill="none" xmlns="http://www.w3.org/2000/svg">
<path d="M40.911 46.5527C37.4931 42.7355 32.5271 40.3333 27 40.3333C21.4729 40.3333 16.5065 42.7355 13.0885 46.5527M27 51C13.7452 51 3 40.2548 3 27C3 13.7452 13.7452 3 27 3C40.2548 3 51 13.7452 51 27C51 40.2548 40.2548 51 27 51ZM27 32.3333C22.5817 32.3333 19 28.7516 19 24.3333C19 19.9151 22.5817 16.3333 27 16.3333C31.4183 16.3333 35 19.9151 35 24.3333C35 28.7516 31.4183 32.3333 27 32.3333Z" stroke="black" stroke-width="5" stroke-linecap="round" stroke-linejoin="round"/>
</svg>
